<svg width="15" height="18" viewBox="0 0 15 18" fill="none" xmlns="http://www.w3.org/2000/svg">
<g filter="url(#filter0_d_2_29)">
<path fill-rule="evenodd" clip-rule="evenodd" d="M7.57866 5.25002C6.65532 5.25002 5.90837 4.50221 5.90837 3.57965C5.90837 2.65757 6.65532 1.90911 7.57866 1.90911C8.50167 1.90911 9.24927 2.65757 9.24927 3.57965C9.24927 4.50221 8.50167 5.25002 7.57866 5.25002ZM7.48394 0C5.54227 0 4 1.63678 4 3.65569C4 6.40791 6.95078 9.25191 6.95078 9.25191C7.34777 9.62783 7.59437 9.65847 8.01646 9.25191C8.01646 9.25191 11 6.40791 11 3.65569C11 1.63678 9.42544 0 7.48394 0Z" fill="#F55A5A"/>
</g>
<defs>
<filter id="filter0_d_2_29" x="0" y="0" width="15" height="17.5454" filterUnits="userSpaceOnUse" color-interpolation-filters="sRGB">
<feFlood flood-opacity="0" result="BackgroundImageFix"/>
<feColorMatrix in="SourceAlpha" type="matrix" values="0 0 0 0 0 0 0 0 0 0 0 0 0 0 0 0 0 0 127 0" result="hardAlpha"/>
<feOffset dy="4"/>
<feGaussianBlur stdDeviation="2"/>
<feComposite in2="hardAlpha" operator="out"/>
<feColorMatrix type="matrix" values="0 0 0 0 0 0 0 0 0 0 0 0 0 0 0 0 0 0 0.25 0"/>
<feBlend mode="normal" in2="BackgroundImageFix" result="effect1_dropShadow_2_29"/>
<feBlend mode="normal" in="SourceGraphic" in2="effect1_dropShadow_2_29" result="shape"/>
</filter>
</defs>
</svg>
